<svg width="34" height="26" viewBox="0 0 34 26" fill="none" xmlns="http://www.w3.org/2000/svg">
<path d="M28.1662 2.64527C26.1125 1.70294 23.9102 1.00868 21.6076 0.611043C21.5656 0.603369 21.5238 0.622547 21.5021 0.660905C21.2189 1.16466 20.9052 1.82185 20.6855 2.33839C18.2089 1.96761 15.7449 1.96761 13.3191 2.33839C13.0994 1.81036 12.7742 1.16466 12.4897 0.660905C12.4681 0.623827 12.4262 0.604649 12.3843 0.611043C10.0829 1.00741 7.88066 1.70167 5.82568 2.64527C5.80789 2.65294 5.79264 2.66574 5.78252 2.68235C1.60525 8.92311 0.460916 15.0105 1.02229 21.0224C1.02483 21.0518 1.04134 21.0799 1.0642 21.0978C3.82025 23.1218 6.48995 24.3505 9.11008 25.165C9.15201 25.1778 9.19644 25.1624 9.22312 25.1279C9.84292 24.2815 10.3954 23.389 10.8691 22.4505C10.8971 22.3956 10.8704 22.3304 10.8132 22.3086C9.9369 21.9762 9.10245 21.5709 8.29977 21.1106C8.23628 21.0735 8.23119 20.9827 8.2896 20.9392C8.45852 20.8127 8.62748 20.681 8.78877 20.548C8.81795 20.5237 8.85861 20.5186 8.89292 20.5339C14.1662 22.9415 19.8752 22.9415 25.0863 20.5339C25.1206 20.5173 25.1612 20.5224 25.1917 20.5467C25.353 20.6797 25.5219 20.8127 25.6921 20.9392C25.7505 20.9827 25.7467 21.0735 25.6832 21.1106C24.8805 21.5798 24.0461 21.9762 23.1685 22.3073C23.1113 22.3291 23.0859 22.3956 23.1139 22.4505C23.5977 23.3877 24.1502 24.2802 24.7586 25.1266C24.784 25.1624 24.8297 25.1778 24.8716 25.165C27.5045 24.3505 30.1742 23.1218 32.9302 21.0978C32.9543 21.0799 32.9696 21.0531 32.9721 21.0236C33.644 14.0732 31.8468 8.03579 28.2081 2.68362C28.1992 2.66574 28.184 2.65294 28.1662 2.64527ZM11.6566 17.3618C10.069 17.3618 8.76081 15.9042 8.76081 14.1142C8.76081 12.3241 10.0436 10.8666 11.6566 10.8666C13.2822 10.8666 14.5777 12.3369 14.5523 14.1142C14.5523 15.9042 13.2695 17.3618 11.6566 17.3618ZM22.3632 17.3618C20.7757 17.3618 19.4675 15.9042 19.4675 14.1142C19.4675 12.3241 20.7502 10.8666 22.3632 10.8666C23.9889 10.8666 25.2844 12.3369 25.259 14.1142C25.259 15.9042 23.9889 17.3618 22.3632 17.3618Z" fill="white"/>
</svg>
